<svg width="512" height="512" viewBox="0 0 512 512" fill="none" xmlns="http://www.w3.org/2000/svg">
<rect width="512" height="512" rx="40" fill="#127780"/>
<g clip-path="url(#clip0_2022_34)">
<path d="M203.343 433.055C203.382 433.2 203.377 433.353 203.328 433.494C203.28 433.636 203.19 433.76 203.07 433.85C202.951 433.94 202.807 433.992 202.658 433.999C202.508 434.006 202.36 433.969 202.233 433.891L144.501 395.72C143.67 395.175 142.99 394.428 142.523 393.547C142.057 392.667 141.819 391.682 141.831 390.683C142.159 364.535 152.304 342.817 172.267 325.529C196.21 304.804 230.084 302.36 259.559 311.319C284.121 318.799 295.826 323.557 312.87 325.314C316.372 325.657 319.982 323.964 321.392 320.363C325.514 309.733 316.586 303.368 307.594 300.474C293.797 296.045 281.736 291.894 271.413 288.022C240.763 276.534 213.595 267.426 184.569 257.309C172.523 253.109 159.665 246.893 150.716 238.32C127.799 216.374 123.228 178.224 140.357 150.984C159.495 120.55 192.856 114.527 226.539 124.107C239.98 127.922 254.917 132.409 271.349 137.567C272.673 137.981 276.019 138.524 281.387 139.196C303.643 142.046 311.396 122.221 311.844 103.897C312.044 96.1382 310.812 87.1652 308.149 76.9776C308.108 76.8274 308.113 76.668 308.163 76.5205C308.214 76.373 308.308 76.2444 308.433 76.1516C308.558 76.0587 308.708 76.0061 308.863 76.0005C309.018 75.9949 309.172 76.0367 309.303 76.1203L365.604 110.991C366.199 111.36 366.683 111.881 367.007 112.5C367.33 113.119 367.48 113.812 367.44 114.506C366.095 140.567 359.047 161.614 338.777 179.06C301.208 211.401 255.373 192.605 215.026 179.553C210.086 177.953 204.07 176.91 196.979 176.424C196.249 176.367 195.523 176.493 194.864 176.788C182.668 182.21 187.026 197.149 198.153 200.792C210.285 204.779 221.754 208.036 232.028 211.894C261.631 222.996 292.643 234.17 325.065 245.414C336.812 249.487 352.041 257.267 360.584 266.547C376.176 283.535 382.377 303.46 379.188 326.322C375.656 351.655 362.25 369.108 338.97 378.681C308.641 391.154 272.246 375.895 241.96 366.25C238.215 365.064 233.089 364.45 226.581 364.407C196.423 364.171 194.117 402.707 200.225 422.703C201.834 427.99 202.874 431.44 203.343 433.055Z" fill="#15EDA3"/>
</g>
<defs>
<clipPath id="clip0_2022_34">
<rect x="130" y="76" width="250" height="358" rx="40" fill="white"/>
</clipPath>
</defs>
</svg>
